<svg width="20" height="20" viewBox="0 0 20 20" fill="none" xmlns="http://www.w3.org/2000/svg">
<path fill-rule="evenodd" clip-rule="evenodd" d="M10 -0.244629C4.47727 -0.244629 0 4.23264 0 9.75537C0 15.2781 4.47727 19.7554 10 19.7554C15.5227 19.7554 20 15.2781 20 9.75537C20 4.23264 15.5227 -0.244629 10 -0.244629ZM14.3345 8.06446C14.4144 7.97323 14.4751 7.86695 14.5133 7.75189C14.5514 7.63682 14.5661 7.51529 14.5566 7.39445C14.5471 7.2736 14.5135 7.15588 14.4578 7.04821C14.4021 6.94055 14.3254 6.8451 14.2323 6.7675C14.1392 6.6899 14.0315 6.6317 13.9155 6.59634C13.7996 6.56097 13.6777 6.54916 13.5572 6.56158C13.4366 6.574 13.3197 6.61041 13.2134 6.66867C13.1071 6.72693 13.0135 6.80587 12.9382 6.90083L9.02909 11.5908L7.00636 9.56719C6.83491 9.40159 6.60527 9.30996 6.36691 9.31203C6.12855 9.3141 5.90054 9.40971 5.73198 9.57826C5.56343 9.74682 5.46782 9.97483 5.46575 10.2132C5.46368 10.4515 5.55531 10.6812 5.72091 10.8526L8.44818 13.5799C8.53751 13.6692 8.64445 13.7389 8.7622 13.7845C8.87994 13.8302 9.00591 13.8508 9.13206 13.8451C9.25822 13.8393 9.3818 13.8074 9.49492 13.7512C9.60804 13.6951 9.70823 13.616 9.78909 13.519L14.3345 8.06446Z" fill="#028090"/>
</svg>
