<svg width="163" height="47" viewBox="0 0 163 47" fill="none" xmlns="http://www.w3.org/2000/svg">
<path d="M44.8487 13.9146C41.9836 13.2021 39.0626 12.7355 36.1178 12.5201C33.1648 12.2452 30.2118 12.0979 27.3179 12.0586C24.3874 12.012 21.4564 12.1234 18.5378 12.3925C15.7116 12.6086 12.9325 13.2372 10.2893 14.2583C9.15032 14.6881 8.09706 15.3165 7.17878 16.1143C6.84768 16.4209 6.58306 16.7919 6.40119 17.2044C6.20811 17.6263 6.0883 18.0779 6.04685 18.5399C5.8303 20.2388 7.58234 22.6055 9.81674 24.2455C12.1492 25.9472 14.6731 27.3709 17.3369 28.4878C20.0243 29.6775 22.7982 30.6624 25.6347 31.4339V31.6205C22.6665 31.2405 19.7313 30.6365 16.8546 29.8135C13.9095 29.013 11.061 27.8934 8.35997 26.4747C6.91953 25.7113 5.59407 24.7493 4.4227 23.617C3.00693 22.2766 2.17316 20.4367 2.09972 18.4908C2.09407 17.477 2.30199 16.4733 2.70999 15.5448C3.13245 14.608 3.7577 13.7762 4.54081 13.1093C5.91867 12.0205 7.52274 11.2523 9.23603 10.8605C12.2648 10.1954 15.3579 9.86607 18.4591 9.87848C21.4636 9.86027 24.4669 10.0045 27.4558 10.3106C30.4153 10.6052 33.3682 11.0176 36.3146 11.5479C39.2576 12.0242 42.1552 12.7469 44.9766 13.7084L44.8487 13.9146Z" fill="#FCE100"/>
<path d="M19.9943 32.2489C22.8597 32.9582 25.7806 33.4215 28.7252 33.6336C31.6782 33.9086 34.6311 34.0657 37.5841 34.105C40.5048 34.151 43.426 34.0396 46.3347 33.7711C49.1541 33.5524 51.9263 32.9238 54.5636 31.9052C55.7123 31.4791 56.7732 30.8467 57.6937 30.0394C58.0239 29.7337 58.2913 29.3668 58.4811 28.9592C58.6834 28.5371 58.8037 28.0806 58.8355 27.6138C59.0422 25.9247 57.2901 23.558 55.0557 21.9181C52.7257 20.2153 50.2054 18.7884 47.5454 17.6659C44.8524 16.4818 42.0756 15.4972 39.2377 14.7199V14.5234C42.2033 14.9048 45.1354 15.5121 48.008 16.3402C50.9515 17.1415 53.7995 18.2577 56.5027 19.6692C57.9407 20.4365 59.2656 21.3981 60.44 22.5269C61.8563 23.871 62.69 25.7141 62.763 27.6629C62.7645 28.6743 62.5637 29.6759 62.1723 30.609C61.7385 31.5415 61.1072 32.369 60.3218 33.0346C58.955 34.1095 57.3695 34.8737 55.6758 35.2736C52.6454 35.9228 49.5522 36.2357 46.4528 36.2065C43.4514 36.2299 40.4511 36.0856 37.466 35.7744C34.513 35.4798 31.5601 35.0674 28.6071 34.5371C25.6733 34.0676 22.7852 33.3481 19.9746 32.3864L19.9943 32.2489Z" fill="#FCE100"/>
<path d="M36.3154 23.4901C36.3173 24.1828 36.1129 24.8605 35.7282 25.4371C35.3434 26.0137 34.7956 26.4633 34.1543 26.7289C33.513 26.9944 32.8071 27.0639 32.1261 26.9285C31.4451 26.7931 30.8198 26.459 30.3295 25.9685C29.8392 25.478 29.5061 24.8532 29.3723 24.1735C29.2385 23.4938 29.3101 22.7897 29.5781 22.1507C29.8461 21.5117 30.2983 20.9665 30.8774 20.5843C31.4565 20.2021 32.1363 20.0001 32.8307 20.004C33.7558 20.0066 34.6421 20.375 35.2953 21.0285C35.9486 21.682 36.3154 22.5673 36.3154 23.4901Z" fill="#002366"/>
<path d="M42.4177 37.857C38.308 39.2421 34.1167 40.3736 29.8676 41.2449C25.5441 42.1912 21.1334 42.6849 16.7072 42.718C14.3341 42.7759 11.9655 42.4814 9.67925 41.844C7.04982 41.1832 4.66122 39.7942 2.78902 37.8373C-0.990759 33.2709 -0.557702 26.878 1.88341 22.5767C3.04175 20.4799 4.5232 18.5778 6.27349 16.9399C7.90519 15.3705 9.65592 13.9292 11.5101 12.6288C15.0951 10.0824 18.9547 7.94462 23.0167 6.25548C31.0345 2.94431 39.4996 0.836276 48.1366 0V0.26515C39.6248 1.26656 31.3683 3.81259 23.7747 7.77762C20.0275 9.71136 16.5276 12.0886 13.3507 14.858C10.317 17.4748 8.02578 20.8409 6.70659 24.6193C6.20387 26.2424 6.07599 27.958 6.33254 29.6374C6.44602 30.415 6.66115 31.1743 6.97237 31.8961C7.11018 32.2594 7.30702 32.554 7.44483 32.8781L7.98619 33.8012C8.87166 35.194 10.1069 36.3315 11.5691 37.1008C13.3217 38.0038 15.1894 38.6645 17.1207 39.0649C21.2674 39.8048 25.4941 39.993 29.6904 39.6246C33.9727 39.3254 38.2249 38.6917 42.4078 37.7293L42.4177 37.857Z" fill="#002366"/>
<path d="M22.6037 9.53488C26.7102 8.17182 30.8944 7.05363 35.134 6.1862C39.4424 5.24909 43.8358 4.7555 48.2451 4.71316C50.6055 4.65281 52.9623 4.9306 55.2436 5.53806C57.863 6.17972 60.2499 7.54048 62.1338 9.46615C66.0022 13.9835 65.5691 20.4157 63.1182 24.6973C61.9555 26.7876 60.4632 28.6776 58.6986 30.2948C57.0658 31.8481 55.3151 33.273 53.462 34.5568C49.8737 37.0738 46.0141 39.182 41.9553 40.8418C33.9465 44.1101 25.4991 46.1847 16.8848 46.9991V46.7437C25.3922 45.7585 33.6516 43.2502 41.2663 39.3393C45.0196 37.4178 48.5346 35.0646 51.7394 32.3276C54.7829 29.7433 57.0884 26.4032 58.4229 22.6449C58.9329 21.0368 59.0643 19.333 58.8068 17.666C58.6924 16.8916 58.467 16.1375 58.1375 15.427L57.6651 14.445C57.478 14.1504 57.3303 13.8361 57.1236 13.5415C56.214 12.1588 54.9633 11.0327 53.4916 10.2714C51.7298 9.4011 49.8643 8.75764 47.94 8.35646C43.7989 7.62516 39.5794 7.44027 35.3899 7.80653C31.1192 8.10541 26.8776 8.72917 22.7021 9.67236L22.6037 9.53488Z" fill="#002366"/>
<path d="M85.5908 39.2158C89.0688 39.2158 91.1357 37.1904 91.1357 33.9033V32.2847H85.6572V34.7085H87.749L87.7324 34.833C87.6079 35.7876 86.8193 36.3438 85.6738 36.3438C84.1299 36.3438 83.1255 35.1318 83.1255 32.957V32.9487C83.1255 30.8237 84.0054 29.6782 85.4995 29.6782C86.5122 29.6782 87.2676 30.1597 87.5083 30.9565L87.5332 31.0396H90.9946L90.9863 30.9565C90.7456 28.5742 88.4878 26.8062 85.4829 26.8062C81.7974 26.8062 79.5396 29.064 79.5396 32.9902V32.9985C79.5396 36.9829 81.7891 39.2158 85.5908 39.2158ZM92.3603 39H95.8798V35.0654H97.0336L98.9262 39H102.861L100.586 34.5425C101.748 33.978 102.512 32.6333 102.512 31.1392V31.1226C102.512 28.4663 100.835 27.022 97.7558 27.022H92.3603V39ZM95.8798 32.5835V29.6201H97.349C98.2787 29.6201 98.9262 30.2261 98.9262 31.0977V31.1143C98.9262 31.9941 98.2953 32.5835 97.349 32.5835H95.8798ZM109.514 39.2158C113.241 39.2158 115.557 36.8335 115.557 33.0151V32.9985C115.557 29.1885 113.233 26.8062 109.514 26.8062C105.82 26.8062 103.488 29.1802 103.488 32.9985V33.0151C103.488 36.8418 105.804 39.2158 109.514 39.2158ZM109.514 36.3438C108.036 36.3438 107.074 35.082 107.074 33.0151V32.9985C107.074 30.9316 108.045 29.6782 109.514 29.6782C111.008 29.6782 111.971 30.9399 111.971 32.9985V33.0151C111.971 35.0571 111.033 36.3438 109.514 36.3438ZM122.028 39.2158C125.232 39.2158 127.315 37.4478 127.315 34.7334V27.022H123.796V34.3848C123.796 35.6465 123.181 36.3438 122.036 36.3438C120.89 36.3438 120.276 35.6465 120.276 34.3848V27.022H116.757V34.7334C116.757 37.4644 118.865 39.2158 122.028 39.2158ZM128.805 39H132.325V35.7295H134.159C136.965 35.7295 138.733 34.061 138.733 31.4048V31.3882C138.733 28.7319 136.965 27.022 134.159 27.022H128.805V39ZM133.321 29.6699C134.483 29.6699 135.18 30.2427 135.18 31.3882V31.4048C135.18 32.5503 134.483 33.1313 133.321 33.1313H132.325V29.6699H133.321Z" fill="#FCE100"/>
<path d="M79.8301 20H83.3496V8.02197H79.8301V20ZM84.8398 20H88.3593V13.7744H88.4174L92.684 20H95.581V8.02197H92.0614V14.1479H92.0033L87.7699 8.02197H84.8398V20ZM99.7689 20H103.288V10.811H106.443V8.02197H96.6146V10.811H99.7689V20ZM107.476 20H115.927V17.2109H110.996V15.3101H115.619V12.7202H110.996V10.811H115.927V8.02197H107.476V20ZM123.161 20.2158C126.639 20.2158 128.706 18.1904 128.706 14.9033V13.2847H123.227V15.7085H125.319L125.302 15.833C125.178 16.7876 124.389 17.3438 123.244 17.3438C121.7 17.3438 120.695 16.1318 120.695 13.957V13.9487C120.695 11.8237 121.575 10.6782 123.07 10.6782C124.082 10.6782 124.838 11.1597 125.078 11.9565L125.103 12.0396H128.565L128.556 11.9565C128.316 9.57422 126.058 7.80615 123.053 7.80615C119.367 7.80615 117.11 10.064 117.11 13.9902V13.9985C117.11 17.9829 119.359 20.2158 123.161 20.2158ZM129.93 20H133.45V16.0654H134.604L136.496 20H140.431L138.156 15.5425C139.318 14.978 140.082 13.6333 140.082 12.1392V12.1226C140.082 9.46631 138.405 8.02197 135.326 8.02197H129.93V20ZM133.45 13.5835V10.6201H134.919C135.849 10.6201 136.496 11.2261 136.496 12.0977V12.1143C136.496 12.9941 135.865 13.5835 134.919 13.5835H133.45ZM140.767 20H144.469L145.092 17.6177H148.678L149.3 20H153.002L149.093 8.02197H144.677L140.767 20ZM146.852 10.8774H146.918L148.03 15.1357H145.739L146.852 10.8774ZM153.912 20H162.129V17.2109H157.431V8.02197H153.912V20Z" fill="#002366"/>
</svg>
