<svg width="163" height="48" viewBox="0 0 163 48" fill="none" xmlns="http://www.w3.org/2000/svg">
<path d="M44.8487 14.4146C41.9836 13.7021 39.0626 13.2355 36.1178 13.0201C33.1648 12.7452 30.2118 12.5979 27.3179 12.5586C24.3874 12.512 21.4564 12.6234 18.5378 12.8925C15.7116 13.1086 12.9325 13.7372 10.2893 14.7583C9.15032 15.1881 8.09706 15.8165 7.17878 16.6143C6.84768 16.9209 6.58306 17.2919 6.40119 17.7044C6.20811 18.1263 6.0883 18.5779 6.04685 19.0399C5.8303 20.7388 7.58234 23.1055 9.81674 24.7455C12.1492 26.4472 14.6731 27.8709 17.3369 28.9878C20.0243 30.1775 22.7982 31.1624 25.6347 31.9339V32.1205C22.6665 31.7405 19.7313 31.1365 16.8546 30.3135C13.9095 29.513 11.061 28.3934 8.35997 26.9747C6.91953 26.2113 5.59407 25.2493 4.4227 24.117C3.00693 22.7766 2.17316 20.9367 2.09972 18.9908C2.09407 17.977 2.30199 16.9733 2.70999 16.0448C3.13245 15.108 3.7577 14.2762 4.54081 13.6093C5.91867 12.5205 7.52274 11.7523 9.23603 11.3605C12.2648 10.6954 15.3579 10.3661 18.4591 10.3785C21.4636 10.3603 24.4669 10.5045 27.4558 10.8106C30.4153 11.1052 33.3682 11.5176 36.3146 12.0479C39.2576 12.5242 42.1552 13.2469 44.9766 14.2084L44.8487 14.4146Z" fill="white"/>
<path d="M19.9943 32.7489C22.8597 33.4582 25.7806 33.9215 28.7252 34.1336C31.6782 34.4086 34.6311 34.5657 37.5841 34.605C40.5048 34.651 43.426 34.5396 46.3347 34.2711C49.1541 34.0524 51.9263 33.4238 54.5636 32.4052C55.7123 31.9791 56.7732 31.3467 57.6937 30.5394C58.0239 30.2337 58.2913 29.8668 58.4811 29.4592C58.6834 29.0371 58.8037 28.5806 58.8355 28.1138C59.0422 26.4247 57.2901 24.058 55.0557 22.4181C52.7257 20.7153 50.2054 19.2884 47.5454 18.1659C44.8524 16.9818 42.0756 15.9972 39.2377 15.2199V15.0234C42.2033 15.4048 45.1354 16.0121 48.008 16.8402C50.9515 17.6415 53.7995 18.7577 56.5027 20.1692C57.9407 20.9365 59.2656 21.8981 60.44 23.0269C61.8563 24.371 62.69 26.2141 62.763 28.1629C62.7645 29.1743 62.5637 30.1759 62.1723 31.109C61.7385 32.0415 61.1072 32.869 60.3218 33.5346C58.955 34.6095 57.3695 35.3737 55.6758 35.7736C52.6454 36.4228 49.5522 36.7357 46.4528 36.7065C43.4514 36.7299 40.4511 36.5856 37.466 36.2744C34.513 35.9798 31.5601 35.5674 28.6071 35.0371C25.6733 34.5676 22.7852 33.8481 19.9746 32.8864L19.9943 32.7489Z" fill="white"/>
<path d="M36.3154 23.9901C36.3173 24.6828 36.1129 25.3605 35.7282 25.9371C35.3434 26.5137 34.7956 26.9633 34.1543 27.2289C33.513 27.4944 32.8071 27.5639 32.1261 27.4285C31.4451 27.2931 30.8198 26.959 30.3295 26.4685C29.8392 25.978 29.5061 25.3532 29.3723 24.6735C29.2385 23.9938 29.3101 23.2897 29.5781 22.6507C29.8461 22.0117 30.2983 21.4665 30.8774 21.0843C31.4565 20.7021 32.1363 20.5001 32.8307 20.504C33.7558 20.5066 34.6421 20.875 35.2953 21.5285C35.9486 22.182 36.3154 23.0673 36.3154 23.9901Z" fill="white"/>
<path d="M42.4177 38.357C38.308 39.7421 34.1167 40.8736 29.8676 41.7449C25.5441 42.6912 21.1334 43.1849 16.7072 43.218C14.3341 43.2759 11.9655 42.9814 9.67925 42.344C7.04982 41.6832 4.66122 40.2942 2.78902 38.3373C-0.990759 33.7709 -0.557702 27.378 1.88341 23.0767C3.04175 20.9799 4.5232 19.0778 6.27349 17.4399C7.90519 15.8705 9.65592 14.4292 11.5101 13.1288C15.0951 10.5824 18.9547 8.44462 23.0167 6.75548C31.0345 3.44431 39.4996 1.33628 48.1366 0.5V0.76515C39.6248 1.76656 31.3683 4.31259 23.7747 8.27762C20.0275 10.2114 16.5276 12.5886 13.3507 15.358C10.317 17.9748 8.02578 21.3409 6.70659 25.1193C6.20387 26.7424 6.07599 28.458 6.33254 30.1374C6.44602 30.915 6.66115 31.6743 6.97237 32.3961C7.11018 32.7594 7.30702 33.054 7.44483 33.3781L7.98619 34.3012C8.87166 35.694 10.1069 36.8315 11.5691 37.6008C13.3217 38.5038 15.1894 39.1645 17.1207 39.5649C21.2674 40.3048 25.4941 40.493 29.6904 40.1246C33.9727 39.8254 38.2249 39.1917 42.4078 38.2293L42.4177 38.357Z" fill="white"/>
<path d="M22.6037 10.0349C26.7102 8.67182 30.8944 7.55363 35.134 6.6862C39.4424 5.74909 43.8358 5.2555 48.2451 5.21316C50.6055 5.15281 52.9623 5.4306 55.2436 6.03806C57.863 6.67972 60.2499 8.04048 62.1338 9.96615C66.0022 14.4835 65.5691 20.9157 63.1182 25.1973C61.9555 27.2876 60.4632 29.1776 58.6986 30.7948C57.0658 32.3481 55.3151 33.773 53.462 35.0568C49.8737 37.5738 46.0141 39.682 41.9553 41.3418C33.9465 44.6101 25.4991 46.6847 16.8848 47.4991V47.2437C25.3922 46.2585 33.6516 43.7502 41.2663 39.8393C45.0196 37.9178 48.5346 35.5646 51.7394 32.8276C54.7829 30.2433 57.0884 26.9032 58.4229 23.1449C58.9329 21.5368 59.0643 19.833 58.8068 18.166C58.6924 17.3916 58.467 16.6375 58.1375 15.927L57.6651 14.945C57.478 14.6504 57.3303 14.3361 57.1236 14.0415C56.214 12.6588 54.9633 11.5327 53.4916 10.7714C51.7298 9.9011 49.8643 9.25764 47.94 8.85646C43.7989 8.12516 39.5794 7.94027 35.3899 8.30653C31.1192 8.60541 26.8776 9.22917 22.7021 10.1724L22.6037 10.0349Z" fill="white"/>
<path d="M85.5908 39.7158C89.0688 39.7158 91.1357 37.6904 91.1357 34.4033V32.7847H85.6572V35.2085H87.749L87.7324 35.333C87.6079 36.2876 86.8193 36.8438 85.6738 36.8438C84.1299 36.8438 83.1255 35.6318 83.1255 33.457V33.4487C83.1255 31.3237 84.0054 30.1782 85.4995 30.1782C86.5122 30.1782 87.2676 30.6597 87.5083 31.4565L87.5332 31.5396H90.9946L90.9863 31.4565C90.7456 29.0742 88.4878 27.3062 85.4829 27.3062C81.7974 27.3062 79.5396 29.564 79.5396 33.4902V33.4985C79.5396 37.4829 81.7891 39.7158 85.5908 39.7158ZM92.3603 39.5H95.8798V35.5654H97.0336L98.9262 39.5H102.861L100.586 35.0425C101.748 34.478 102.512 33.1333 102.512 31.6392V31.6226C102.512 28.9663 100.835 27.522 97.7558 27.522H92.3603V39.5ZM95.8798 33.0835V30.1201H97.349C98.2787 30.1201 98.9262 30.7261 98.9262 31.5977V31.6143C98.9262 32.4941 98.2953 33.0835 97.349 33.0835H95.8798ZM109.514 39.7158C113.241 39.7158 115.557 37.3335 115.557 33.5151V33.4985C115.557 29.6885 113.233 27.3062 109.514 27.3062C105.82 27.3062 103.488 29.6802 103.488 33.4985V33.5151C103.488 37.3418 105.804 39.7158 109.514 39.7158ZM109.514 36.8438C108.036 36.8438 107.074 35.582 107.074 33.5151V33.4985C107.074 31.4316 108.045 30.1782 109.514 30.1782C111.008 30.1782 111.971 31.4399 111.971 33.4985V33.5151C111.971 35.5571 111.033 36.8438 109.514 36.8438ZM122.028 39.7158C125.232 39.7158 127.315 37.9478 127.315 35.2334V27.522H123.796V34.8848C123.796 36.1465 123.181 36.8438 122.036 36.8438C120.89 36.8438 120.276 36.1465 120.276 34.8848V27.522H116.757V35.2334C116.757 37.9644 118.865 39.7158 122.028 39.7158ZM128.805 39.5H132.325V36.2295H134.159C136.965 36.2295 138.733 34.561 138.733 31.9048V31.8882C138.733 29.2319 136.965 27.522 134.159 27.522H128.805V39.5ZM133.321 30.1699C134.483 30.1699 135.18 30.7427 135.18 31.8882V31.9048C135.18 33.0503 134.483 33.6313 133.321 33.6313H132.325V30.1699H133.321Z" fill="white"/>
<path d="M79.8301 20.5H83.3496V8.52197H79.8301V20.5ZM84.8398 20.5H88.3593V14.2744H88.4174L92.684 20.5H95.581V8.52197H92.0614V14.6479H92.0033L87.7699 8.52197H84.8398V20.5ZM99.7689 20.5H103.288V11.311H106.443V8.52197H96.6146V11.311H99.7689V20.5ZM107.476 20.5H115.927V17.7109H110.996V15.8101H115.619V13.2202H110.996V11.311H115.927V8.52197H107.476V20.5ZM123.161 20.7158C126.639 20.7158 128.706 18.6904 128.706 15.4033V13.7847H123.227V16.2085H125.319L125.302 16.333C125.178 17.2876 124.389 17.8438 123.244 17.8438C121.7 17.8438 120.695 16.6318 120.695 14.457V14.4487C120.695 12.3237 121.575 11.1782 123.07 11.1782C124.082 11.1782 124.838 11.6597 125.078 12.4565L125.103 12.5396H128.565L128.556 12.4565C128.316 10.0742 126.058 8.30615 123.053 8.30615C119.367 8.30615 117.11 10.564 117.11 14.4902V14.4985C117.11 18.4829 119.359 20.7158 123.161 20.7158ZM129.93 20.5H133.45V16.5654H134.604L136.496 20.5H140.431L138.156 16.0425C139.318 15.478 140.082 14.1333 140.082 12.6392V12.6226C140.082 9.96631 138.405 8.52197 135.326 8.52197H129.93V20.5ZM133.45 14.0835V11.1201H134.919C135.849 11.1201 136.496 11.7261 136.496 12.5977V12.6143C136.496 13.4941 135.865 14.0835 134.919 14.0835H133.45ZM140.767 20.5H144.469L145.092 18.1177H148.678L149.3 20.5H153.002L149.093 8.52197H144.677L140.767 20.5ZM146.852 11.3774H146.918L148.03 15.6357H145.739L146.852 11.3774ZM153.912 20.5H162.129V17.7109H157.431V8.52197H153.912V20.5Z" fill="white"/>
</svg>
