<svg width="22" height="22" viewBox="0 0 22 22" fill="none" xmlns="http://www.w3.org/2000/svg">
<path d="M15.1799 7.48429C14.2102 7.20339 13.2216 7.01948 12.2248 6.93457C11.2254 6.82617 10.2259 6.7681 9.24642 6.75261C8.25452 6.73424 7.2625 6.77817 6.27468 6.88424C5.31811 6.96944 4.37748 7.21726 3.48283 7.61979C3.09734 7.7892 2.74085 8.03696 2.43005 8.35147C2.31799 8.47232 2.22842 8.61856 2.16686 8.78118C2.10151 8.94752 2.06096 9.12556 2.04693 9.30768C1.97364 9.97742 2.56664 10.9104 3.3229 11.5569C4.11235 12.2278 4.96659 12.789 5.86822 13.2293C6.77779 13.6983 7.71665 14.0866 8.67672 14.3907V14.4643C7.67206 14.3145 6.67863 14.0764 5.70497 13.7519C4.70815 13.4364 3.74403 12.995 2.82984 12.4357C2.3423 12.1348 1.89369 11.7555 1.49722 11.3091C1.01803 10.7807 0.735831 10.0554 0.710975 9.28832C0.709064 8.88865 0.779435 8.49298 0.91753 8.12693C1.06052 7.75764 1.27214 7.42975 1.53719 7.16684C2.00355 6.73761 2.54647 6.43475 3.12635 6.28031C4.15147 6.01812 5.19837 5.88829 6.24802 5.89318C7.26494 5.886 8.28145 5.94287 9.29307 6.06352C10.2948 6.17966 11.2942 6.34225 12.2915 6.5513C13.2876 6.73904 14.2683 7.02395 15.2232 7.40299L15.1799 7.48429Z" fill="#FCE100"/>
<path d="M6.76839 14.7123C7.73821 14.9919 8.72685 15.1746 9.72348 15.2582C10.7229 15.3666 11.7224 15.4285 12.7219 15.444C13.7104 15.4622 14.6991 15.4182 15.6836 15.3124C16.6379 15.2262 17.5762 14.9784 18.4688 14.5768C18.8576 14.4088 19.2167 14.1596 19.5282 13.8413C19.64 13.7208 19.7305 13.5761 19.7948 13.4154C19.8632 13.249 19.9039 13.0691 19.9147 12.8851C19.9847 12.2192 19.3917 11.2862 18.6354 10.6397C17.8468 9.96846 16.9937 9.40594 16.0934 8.96343C15.1819 8.49665 14.2421 8.10847 13.2816 7.80204V7.72461C14.2853 7.87494 15.2777 8.11437 16.25 8.4408C17.2462 8.75671 18.2102 9.19672 19.1251 9.75318C19.6118 10.0556 20.0603 10.4347 20.4578 10.8797C20.9371 11.4096 21.2193 12.1362 21.244 12.9044C21.2445 13.3032 21.1766 13.698 21.0441 14.0658C20.8973 14.4334 20.6836 14.7597 20.4178 15.022C19.9552 15.4458 19.4185 15.747 18.8453 15.9047C17.8196 16.1606 16.7727 16.284 15.7236 16.2725C14.7078 16.2817 13.6923 16.2248 12.6819 16.1021C11.6824 15.986 10.683 15.8234 9.6835 15.6143C8.69052 15.4293 7.71301 15.1456 6.76172 14.7665L6.76839 14.7123Z" fill="#FCE100"/>
<path d="M12.2902 11.2611C12.2908 11.5341 12.2216 11.8013 12.0914 12.0286C11.9612 12.2559 11.7758 12.4331 11.5587 12.5378C11.3417 12.6425 11.1027 12.6699 10.8723 12.6165C10.6418 12.5631 10.4301 12.4314 10.2642 12.2381C10.0982 12.0447 9.98548 11.7984 9.9402 11.5304C9.89492 11.2625 9.91915 10.9849 10.0098 10.733C10.1005 10.4811 10.2536 10.2662 10.4496 10.1155C10.6456 9.96483 10.8757 9.88521 11.1107 9.88674C11.4238 9.88777 11.7238 10.033 11.9449 10.2906C12.166 10.5483 12.2902 10.8972 12.2902 11.2611Z" fill="#02569C"/>
<path d="M14.3568 16.9239C12.9658 17.4699 11.5472 17.916 10.1091 18.2595C8.64575 18.6325 7.15289 18.8271 5.65479 18.8402C4.85156 18.863 4.04989 18.7469 3.27607 18.4957C2.38611 18.2352 1.57765 17.6876 0.943982 16.9162C-0.335336 15.116 -0.188762 12.5958 0.637464 10.9001C1.02952 10.0736 1.53094 9.3237 2.12335 8.67801C2.67562 8.05934 3.26818 7.49115 3.89574 6.97851C5.10913 5.97466 6.41547 5.13191 7.79032 4.46602C10.504 3.1607 13.3692 2.32968 16.2925 2V2.10453C13.4115 2.4993 10.617 3.50299 8.04686 5.06608C6.77859 5.82839 5.594 6.76556 4.51873 7.8573C3.49193 8.88888 2.71643 10.2159 2.26993 11.7054C2.09978 12.3452 2.0565 13.0216 2.14333 13.6836C2.18174 13.9901 2.25455 14.2895 2.35989 14.574C2.40653 14.7173 2.47316 14.8334 2.5198 14.9611L2.70303 15.3251C3.00273 15.8741 3.4208 16.3225 3.91572 16.6258C4.50892 16.9818 5.14106 17.2423 5.79473 17.4001C7.19823 17.6918 8.62882 17.766 10.0491 17.6207C11.4985 17.5028 12.9377 17.253 14.3535 16.8736L14.3568 16.9239Z" fill="#02569C"/>
<path d="M7.65048 5.75751C9.0404 5.22017 10.4566 4.77936 11.8915 4.4374C13.3498 4.06798 14.8368 3.87339 16.3292 3.8567C17.1281 3.83291 17.9258 3.94242 18.6979 4.18189C19.5845 4.43485 20.3923 4.97128 21.03 5.73042C22.3393 7.51122 22.1927 10.0469 21.3632 11.7348C20.9696 12.5588 20.4646 13.3039 19.8673 13.9415C19.3147 14.5538 18.7221 15.1155 18.0949 15.6216C16.8804 16.6139 15.574 17.4449 14.2003 18.0993C11.4896 19.3877 8.63049 20.2055 5.71484 20.5266V20.4259C8.59428 20.0375 11.3898 19.0487 13.9671 17.5069C15.2375 16.7495 16.4272 15.8218 17.5119 14.7428C18.542 13.7241 19.3223 12.4073 19.774 10.9257C19.9466 10.2918 19.9911 9.62012 19.9039 8.96296C19.8652 8.65765 19.7889 8.36039 19.6774 8.0803L19.5175 7.69317C19.4542 7.57703 19.4042 7.45315 19.3342 7.33701C19.0264 6.7919 18.603 6.34796 18.1049 6.04786C17.5086 5.70477 16.8772 5.45111 16.2259 5.29296C14.8243 5.00467 13.3961 4.93178 11.9782 5.07616C10.5327 5.19399 9.09705 5.43989 7.68378 5.81171L7.65048 5.75751Z" fill="#02569C"/>
</svg>
