<svg width="28" height="28" viewBox="0 0 28 28" fill="none" xmlns="http://www.w3.org/2000/svg">
<path d="M21.805 13.4517C21.14 13.2767 20.3583 13.1833 19.425 13.1833C18.13 13.1833 17.6517 13.4983 16.9867 14C16.9517 14.0233 16.9167 14.0583 16.8817 14.0933L15.7733 15.2717C14.84 16.2517 13.16 16.2633 12.2267 15.26L11.1183 14.0933C11.0833 14.0583 11.0483 14.0233 11.0133 14C10.3483 13.4983 9.87 13.1833 8.575 13.1833C7.64167 13.1833 6.86 13.2767 6.195 13.4517C3.41833 14.1983 3.41833 16.4033 3.41833 18.34V19.425C3.41833 22.3533 3.41833 25.6667 9.66 25.6667H18.34C22.4817 25.6667 24.5817 23.5667 24.5817 19.425V18.34C24.5817 16.4033 24.5817 14.1983 21.805 13.4517ZM16.7183 21.4667H11.2817C10.8383 21.4667 10.4767 21.105 10.4767 20.65C10.4767 20.195 10.8383 19.8333 11.2817 19.8333H16.7183C17.1617 19.8333 17.5233 20.195 17.5233 20.65C17.5233 21.105 17.1617 21.4667 16.7183 21.4667Z" fill="#002366"/>
<path d="M14.7817 3.11492C14.7817 2.68325 14.4317 2.33325 14.0001 2.33325C13.5684 2.33325 13.2184 2.68325 13.2184 3.11492V4.66659H14.7934V3.11492H14.7817Z" fill="#002366"/>
<path d="M22.4117 9.82341V11.8067C22.365 11.7834 22.3067 11.7717 22.26 11.7601H22.2484C21.42 11.5384 20.4984 11.4334 19.425 11.4334C17.6284 11.4334 16.7767 11.9584 16.0067 12.5417C15.8434 12.6584 15.7267 12.7751 15.61 12.8917L14.5017 14.0701C14.385 14.1867 14.1984 14.2567 14 14.2567C13.9067 14.2567 13.6734 14.2451 13.4984 14.0584L12.355 12.8567C12.2384 12.7284 12.0984 12.6234 12.0634 12.6001C11.2234 11.9584 10.3717 11.4334 8.57505 11.4334C7.50171 11.4334 6.58005 11.5384 5.74005 11.7601C5.69338 11.7717 5.63505 11.7834 5.58838 11.8067V9.82341C5.58838 7.40841 5.58838 4.66675 10.745 4.66675H13.2184V8.69175L12.46 7.93341C12.145 7.61841 11.655 7.61841 11.34 7.93341C11.0367 8.23675 11.0367 8.73841 11.34 9.04175L13.44 11.1417C13.4517 11.1534 13.4634 11.1534 13.4634 11.1651C13.5334 11.2234 13.615 11.2817 13.6967 11.3167C13.8017 11.3517 13.895 11.3751 14 11.3751C14.105 11.3751 14.1984 11.3517 14.3034 11.3167C14.3967 11.2817 14.4784 11.2234 14.56 11.1417L16.66 9.04175C16.9634 8.73841 16.9634 8.23675 16.66 7.93341C16.345 7.61841 15.855 7.61841 15.54 7.93341L14.7817 8.69175V4.66675H17.255C22.4117 4.66675 22.4117 7.40841 22.4117 9.82341Z" fill="#002366"/>
</svg>
